<?xml version="1.0" encoding="UTF-8" standalone="no"?>
<!-- Created with Inkscape (http://www.inkscape.org/) -->

<svg
   xmlns:dc="http://purl.org/dc/elements/1.1/"
   xmlns:cc="http://creativecommons.org/ns#"
   xmlns:rdf="http://www.w3.org/1999/02/22-rdf-syntax-ns#"
   xmlns:svg="http://www.w3.org/2000/svg"
   xmlns="http://www.w3.org/2000/svg"
   xmlns:xlink="http://www.w3.org/1999/xlink"
   xmlns:sodipodi="http://sodipodi.sourceforge.net/DTD/sodipodi-0.dtd"
   xmlns:inkscape="http://www.inkscape.org/namespaces/inkscape"
   width="128"
   height="128"
   viewBox="0 0 33.866666 33.866668"
   version="1.1"
   id="svg8"
   inkscape:version="0.92.2 5c3e80d, 2017-08-06"
   sodipodi:docname="logo_square.svg">
  <defs
     id="defs2">
    <linearGradient
       inkscape:collect="always"
       id="linearGradient845">
      <stop
         style="stop-color:#ffffff;stop-opacity:0.75446427"
         offset="0"
         id="stop841" />
      <stop
         id="stop852"
         offset="0.74999976"
         style="stop-color:#ffffff;stop-opacity:0.75446427" />
      <stop
         style="stop-color:#ffffff;stop-opacity:0.9910714"
         offset="1"
         id="stop843" />
    </linearGradient>
    <radialGradient
       inkscape:collect="always"
       xlink:href="#linearGradient845"
       id="radialGradient847"
       cx="16.933334"
       cy="280.06662"
       fx="16.933334"
       fy="280.06662"
       r="16.933333"
       gradientUnits="userSpaceOnUse"
       gradientTransform="matrix(3.779525,-5.3799393e-5,5.3800168e-5,3.7795793,-0.0149856,-994.53217)" />
  </defs>
  <sodipodi:namedview
     id="base"
     pagecolor="#ffffff"
     bordercolor="#666666"
     borderopacity="1.0"
     inkscape:pageopacity="0"
     inkscape:pageshadow="2"
     inkscape:zoom="4.354143"
     inkscape:cx="11.977915"
     inkscape:cy="71.669469"
     inkscape:document-units="px"
     inkscape:current-layer="layer1"
     showgrid="true"
     units="px"
     inkscape:window-width="1920"
     inkscape:window-height="970"
     inkscape:window-x="0"
     inkscape:window-y="33"
     inkscape:window-maximized="1"
     inkscape:pagecheckerboard="true"
     inkscape:snap-grids="true">
    <inkscape:grid
       type="xygrid"
       id="grid868"
       spacingx="1.0583333"
       spacingy="1.0583333"
       empspacing="4"
       dotted="false" />
  </sodipodi:namedview>
  <metadata
     id="metadata5">
    <rdf:RDF>
      <cc:Work
         rdf:about="">
        <dc:format>image/svg+xml</dc:format>
        <dc:type
           rdf:resource="http://purl.org/dc/dcmitype/StillImage" />
        <dc:title />
      </cc:Work>
    </rdf:RDF>
  </metadata>
  <g
     inkscape:label="Layer 1"
     inkscape:groupmode="layer"
     id="layer1"
     transform="translate(0,-263.13332)"
     style="fill:#ffffff">
    <path
       style="fill:url(#radialGradient847);fill-opacity:1;stroke:none;stroke-width:8.53333378;stroke-miterlimit:4;stroke-dasharray:none;stroke-opacity:1"
       d="M 64 0 A 64.000003 64.000003 0 0 0 0 64 A 64.000003 64.000003 0 0 0 64 128 A 64.000003 64.000003 0 0 0 128 64 A 64.000003 64.000003 0 0 0 64 0 z M 54 18 L 74 18 L 74 29.431641 A 36.000004 36.000004 0 0 1 91.578125 40.859375 L 76.244141 53.726562 A 15.999999 15.999999 0 0 0 64 48 A 15.999999 15.999999 0 0 0 48 64 A 15.999999 15.999999 0 0 0 64 80 A 15.999999 15.999999 0 0 0 77.84375 71.992188 L 95.177734 82 A 36.000004 36.000004 0 0 1 74 98.583984 L 74 110 L 54 110 L 54 98.580078 A 36.000004 36.000004 0 0 1 28.136719 67.136719 A 36.000004 36.000004 0 0 1 50.222656 30.740234 A 36.000004 36.000004 0 0 1 54 29.435547 L 54 18 z "
       transform="matrix(0.26458334,0,0,0.26458334,0,263.13332)"
       id="path817" />
  </g>
</svg>
